<?xml version="1.0" encoding="UTF-8"?>
<!DOCTYPE svg PUBLIC "-//W3C//DTD SVG 1.1//EN" "http://www.w3.org/Graphics/SVG/1.1/DTD/svg11.dtd">
<svg xmlns="http://www.w3.org/2000/svg" version="1.1" width="500px" height="500px" style="shape-rendering:geometricPrecision; text-rendering:geometricPrecision; image-rendering:optimizeQuality; fill-rule:evenodd; clip-rule:evenodd" xmlns:xlink="http://www.w3.org/1999/xlink">
<g><path style="opacity:1" fill="#0c111c" d="M 227.5,22.5 C 323.319,17.4889 396.819,55.1556 448,135.5C 488.987,212.405 488.654,289.072 447,365.5C 395.282,445.776 321.448,482.609 225.5,476C 139.142,463.283 77.6416,417.449 41,338.5C 10.991,261.928 18.3243,189.262 63,120.5C 103.721,64.3802 158.555,31.7136 227.5,22.5 Z"/></g>
<g><path style="opacity:1" fill="#e6f6f3" d="M 236.5,25.5 C 333.634,24.2948 405.467,65.9614 452,150.5C 479.744,211.327 481.744,272.994 458,335.5C 426.594,406.467 373.094,450.967 297.5,469C 206.487,484.781 131.654,457.281 73,386.5C 32.85,331.671 18.85,270.671 31,203.5C 52.3913,118.108 104.891,61.6082 188.5,34C 204.354,29.5257 220.354,26.6924 236.5,25.5 Z"/></g>
<g><path style="opacity:1" fill="#0a0f19" d="M 217.5,37.5 C 219.465,37.9483 219.798,38.9483 218.5,40.5C 216.253,41.3742 213.92,41.7076 211.5,41.5C 211.5,40.5 211.5,39.5 211.5,38.5C 213.735,38.7947 215.735,38.4614 217.5,37.5 Z"/></g>
<g><path style="opacity:1" fill="#080d16" d="M 265.5,40.5 C 272.167,39.8333 275.167,42.8333 274.5,49.5C 273.167,49.5 271.833,49.5 270.5,49.5C 270.66,47.8008 270.494,46.1341 270,44.5C 269,43.1667 268,43.1667 267,44.5C 265.971,50.1231 265.471,55.7898 265.5,61.5C 268.91,61.6162 270.244,59.9496 269.5,56.5C 270.833,56.5 272.167,56.5 273.5,56.5C 274.238,61.7134 272.072,64.7134 267,65.5C 264.849,65.3569 263.182,64.3569 262,62.5C 261.392,56.1264 261.725,49.7931 263,43.5C 264.045,42.6266 264.878,41.6266 265.5,40.5 Z"/></g>
<g><path style="opacity:1" fill="#080d16" d="M 219.5,41.5 C 220.5,41.5 221.5,41.5 222.5,41.5C 223.827,49.7941 224.827,58.1274 225.5,66.5C 224.5,66.5 223.5,66.5 222.5,66.5C 222.311,62.0295 221.477,57.6961 220,53.5C 218.621,58.036 218.121,62.7027 218.5,67.5C 216.833,67.5 215.167,67.5 213.5,67.5C 212.282,59.5273 211.282,51.5273 210.5,43.5C 211.5,43.5 212.5,43.5 213.5,43.5C 213.864,47.9943 214.698,52.3277 216,56.5C 216.499,51.8452 216.666,47.1785 216.5,42.5C 217.791,42.7373 218.791,42.404 219.5,41.5 Z"/></g>
<g><path style="opacity:1" fill="#060a12" d="M 292.5,44.5 C 296.5,45.1667 300.5,45.8333 304.5,46.5C 304.5,47.5 304.5,48.5 304.5,49.5C 302.833,49.5 301.167,49.5 299.5,49.5C 297.851,56.0985 296.517,62.7652 295.5,69.5C 294.167,69.5 292.833,69.5 291.5,69.5C 292.724,63.1574 294.058,56.8241 295.5,50.5C 293.624,48.952 292.624,46.952 292.5,44.5 Z"/></g>
<g><path style="opacity:1" fill="#060b13" d="M 188.5,48.5 C 189.75,48.5774 190.583,49.244 191,50.5C 193.682,57.7094 195.849,65.0428 197.5,72.5C 196.178,72.67 195.011,72.3366 194,71.5C 191.796,64.3861 189.296,57.3861 186.5,50.5C 187.243,49.8182 187.909,49.1515 188.5,48.5 Z"/></g>
<g><path style="opacity:1" fill="#04080f" d="M 175.5,53.5 C 176.496,53.4142 177.329,53.7476 178,54.5C 178.642,56.7619 179.475,58.9285 180.5,61C 187.185,60.1594 190.852,63.3261 191.5,70.5C 191.124,72.3829 190.124,73.8829 188.5,75C 186.385,75.5573 184.385,76.3906 182.5,77.5C 179.738,70.3815 177.071,63.2148 174.5,56C 174.743,55.0979 175.077,54.2646 175.5,53.5 Z"/></g>
<g><path style="opacity:1" fill="#050912" d="M 323.5,53.5 C 327.801,53.1383 330.468,54.9716 331.5,59C 329.731,64.9742 327.564,70.8076 325,76.5C 320.065,79.2916 316.565,77.9583 314.5,72.5C 316.213,65.4124 319.213,59.0791 323.5,53.5 Z"/></g>
<g><path style="opacity:1" fill="#1c6fca" d="M 324.5,57.5 C 325.5,57.5 326.5,57.5 327.5,57.5C 327.047,61.6928 325.881,65.6928 324,69.5C 323.313,71.5547 322.146,73.2214 320.5,74.5C 319.28,74.1131 318.613,73.2798 318.5,72C 320.377,67.0837 322.377,62.2504 324.5,57.5 Z"/></g>
<g><path style="opacity:1" fill="#050911" d="M 154.5,62.5 C 159.231,68.9486 163.231,75.9486 166.5,83.5C 165.965,85.1013 164.965,85.6013 163.5,85C 161.968,82.9656 160.635,80.7989 159.5,78.5C 157.505,77.1101 156.172,77.6101 155.5,80C 156.953,82.4048 158.287,84.9048 159.5,87.5C 159.113,88.7199 158.28,89.3865 157,89.5C 152.779,82.9301 148.945,76.0968 145.5,69C 146.009,67.8315 146.842,66.9981 148,66.5C 149.3,69.2947 150.8,71.9613 152.5,74.5C 154.185,75.5092 155.518,75.0092 156.5,73C 154.911,70.4884 153.578,67.8217 152.5,65C 153.056,63.9889 153.722,63.1556 154.5,62.5 Z"/></g>
<g><path style="opacity:1" fill="#1b69be" d="M 181.5,64.5 C 185.522,64.0184 187.522,65.8518 187.5,70C 186.968,72.0197 185.635,72.853 183.5,72.5C 183.416,69.6726 182.75,67.006 181.5,64.5 Z"/></g>
<g><path style="opacity:1" fill="#050a12" d="M 350.5,65.5 C 352.645,65.7377 354.312,66.7377 355.5,68.5C 353.039,73.3926 351.206,78.3926 350,83.5C 353.5,79.1667 357,74.8333 360.5,70.5C 361.833,71.5 363.167,72.5 364.5,73.5C 360.837,80.8305 356.67,87.8305 352,94.5C 351.075,93.9535 350.242,93.2868 349.5,92.5C 351.934,88.9661 353.767,85.2994 355,81.5C 352.333,84.8333 349.667,88.1667 347,91.5C 345.764,90.6008 344.93,89.4341 344.5,88C 346.305,84.259 347.472,80.4256 348,76.5C 345.982,80.5507 343.482,84.2173 340.5,87.5C 339.692,87.1924 339.025,86.6924 338.5,86C 342.727,79.2793 346.727,72.446 350.5,65.5 Z"/></g>
<g><path style="opacity:1" fill="#050912" d="M 121.5,83.5 C 124.097,85.4305 126.431,87.7639 128.5,90.5C 135.57,87.2052 139.904,89.5385 141.5,97.5C 141.281,98.938 140.781,100.271 140,101.5C 138.045,102.453 136.378,103.787 135,105.5C 130.333,99.5 125.667,93.5 121,87.5C 120.421,86.0715 120.588,84.7382 121.5,83.5 Z"/></g>
<g><path style="opacity:1" fill="#191a1c" d="M 232.5,85.5 C 300.694,81.6805 353.527,108.014 391,164.5C 414.069,203.557 420.403,245.224 410,289.5C 389.194,357.307 344.027,398.141 274.5,412C 202.97,418.964 147.804,392.464 109,332.5C 86.6529,292.806 80.9863,250.806 92,206.5C 110.509,147.991 149.009,109.491 207.5,91C 215.924,88.9512 224.257,87.1178 232.5,85.5 Z"/></g>
<g><path style="opacity:1" fill="#fdfdfd" d="M 229.5,88.5 C 298.769,83.5528 352.269,109.886 390,167.5C 422.65,229.289 419.317,288.956 380,346.5C 336.588,399.309 281.088,419.476 213.5,407C 145.646,387.778 104.813,343.611 91,274.5C 83.2688,204.142 108.769,149.642 167.5,111C 186.789,99.4064 207.456,91.9064 229.5,88.5 Z"/></g>
<g><path style="opacity:1" fill="#040810" d="M 382.5,87.5 C 384.564,88.058 386.23,89.2246 387.5,91C 383.784,98.2758 379.45,105.109 374.5,111.5C 372.164,109.882 372.164,108.048 374.5,106C 373.333,104.833 372.167,103.667 371,102.5C 369.981,103.687 368.814,104.687 367.5,105.5C 366.5,105.167 365.833,104.5 365.5,103.5C 371.187,98.145 376.854,92.8117 382.5,87.5 Z"/></g>
<g><path style="opacity:1" fill="#1c6ec8" d="M 131.5,92.5 C 135.638,92.9732 137.638,95.3065 137.5,99.5C 136.178,99.67 135.011,99.3366 134,98.5C 133.215,96.714 132.049,95.214 130.5,94C 131.056,93.6174 131.389,93.1174 131.5,92.5 Z"/></g>
<g><path style="opacity:1" fill="#1b69bf" d="M 380.5,93.5 C 380.238,96.6972 378.738,99.6972 376,102.5C 375.075,101.953 374.242,101.287 373.5,100.5C 376.188,98.4789 378.521,96.1456 380.5,93.5 Z"/></g>
<g><path style="opacity:1" fill="#070b14" d="M 103.5,99.5 C 109.942,104.768 116.275,110.268 122.5,116C 121.646,117.022 120.646,117.855 119.5,118.5C 114.681,114.182 110.015,109.682 105.5,105C 103,104.833 101.833,106 102,108.5C 106.667,111.833 110.667,115.833 114,120.5C 114.847,123.449 114.014,125.782 111.5,127.5C 110.28,127.113 109.613,126.28 109.5,125C 110.187,123.838 110.353,122.672 110,121.5C 105.5,117 101,112.5 96.5,108C 98.6677,105.002 101.001,102.169 103.5,99.5 Z"/></g>
<g><path style="opacity:1" fill="#050911" d="M 402.5,106.5 C 406.08,108.408 409.08,111.074 411.5,114.5C 410.758,115.287 409.925,115.953 409,116.5C 407.867,114.789 406.367,114.289 404.5,115C 400.238,120.299 395.238,124.299 389.5,127C 388.549,126.282 388.383,125.449 389,124.5C 393.532,119.633 398.366,115.133 403.5,111C 401.452,109.774 401.119,108.274 402.5,106.5 Z"/></g>
<g><path style="opacity:1" fill="#2a2627" d="M 298.5,132.5 C 298.5,133.5 298.5,134.5 298.5,135.5C 295.372,133.846 292.039,132.679 288.5,132C 281.833,131.333 275.167,131.333 268.5,132C 253.819,135.394 239.486,139.894 225.5,145.5C 224.304,145.154 224.304,144.654 225.5,144C 229.304,141.695 232.97,139.195 236.5,136.5C 222.609,131.957 208.609,131.457 194.5,135C 188.797,138.368 184.963,143.201 183,149.5C 182.317,158.866 182.651,168.199 184,177.5C 189.785,211.316 199.285,243.983 212.5,275.5C 214.684,263.081 218.851,251.414 225,240.5C 230.292,233.223 237.292,228.223 246,225.5C 264.247,235.281 274.58,250.614 277,271.5C 292.152,238.543 302.985,204.21 309.5,168.5C 310.167,163.5 310.833,158.5 311.5,153.5C 309.956,198.675 299.456,241.675 280,282.5C 277.667,285.167 275.333,285.167 273,282.5C 271.002,274.516 269.002,266.516 267,258.5C 263.491,245.742 255.657,237.075 243.5,232.5C 232.348,237.831 224.848,246.498 221,258.5C 218.894,266.131 216.894,273.798 215,281.5C 213.667,282.833 212.333,282.833 211,281.5C 195.341,246.204 184.008,209.538 177,171.5C 172.396,135.108 188.229,120.275 224.5,127C 231.69,128.756 238.857,130.589 246,132.5C 261.31,127.396 276.81,126.563 292.5,130C 294.641,130.573 296.641,131.406 298.5,132.5 Z"/></g>
<g><path style="opacity:1" fill="#050911" d="M 79.5,127.5 C 87.2757,130.554 94.609,134.387 101.5,139C 101.37,140.059 100.87,140.892 100,141.5C 98.9148,140.707 97.7481,140.04 96.5,139.5C 95.6184,140.76 94.6184,141.926 93.5,143C 95.8329,144.243 96.4996,145.909 95.5,148C 88.9212,144.454 83.0878,139.62 78,133.5C 77.5906,131.305 78.0906,129.305 79.5,127.5 Z"/></g>
<g><path style="opacity:1" fill="#fdfdfd" d="M 298.5,135.5 C 304.237,139.293 307.737,144.626 309,151.5C 309.499,157.157 309.666,162.824 309.5,168.5C 302.985,204.21 292.152,238.543 277,271.5C 274.58,250.614 264.247,235.281 246,225.5C 237.292,228.223 230.292,233.223 225,240.5C 218.851,251.414 214.684,263.081 212.5,275.5C 199.285,243.983 189.785,211.316 184,177.5C 182.651,168.199 182.317,158.866 183,149.5C 184.963,143.201 188.797,138.368 194.5,135C 208.609,131.457 222.609,131.957 236.5,136.5C 232.97,139.195 229.304,141.695 225.5,144C 224.304,144.654 224.304,145.154 225.5,145.5C 239.486,139.894 253.819,135.394 268.5,132C 275.167,131.333 281.833,131.333 288.5,132C 292.039,132.679 295.372,133.846 298.5,135.5 Z"/></g>
<g><path style="opacity:1" fill="#040810" d="M 418.5,131.5 C 424.83,130.666 427.663,133.333 427,139.5C 422.609,143.612 417.776,147.112 412.5,150C 406.171,150.668 403.671,147.834 405,141.5C 409.479,138.024 413.979,134.69 418.5,131.5 Z"/></g>
<g><path style="opacity:1" fill="#1b6cc4" d="M 420.5,134.5 C 423.389,134.999 424.056,136.499 422.5,139C 418.833,141.333 415.167,143.667 411.5,146C 408.326,146.829 407.326,145.829 408.5,143C 412.742,140.39 416.742,137.557 420.5,134.5 Z"/></g>
<g><path style="opacity:1" fill="#1a67bb" d="M 83.5,134.5 C 83.56,133.957 83.8933,133.624 84.5,133.5C 86.8333,134.667 89.1667,135.833 91.5,137C 92.8333,139.333 92.1667,140.333 89.5,140C 87.6298,137.96 85.6298,136.127 83.5,134.5 Z"/></g>
<g><path style="opacity:1" fill="#595658" d="M 298.5,132.5 C 306.105,137.357 310.438,144.357 311.5,153.5C 310.833,158.5 310.167,163.5 309.5,168.5C 309.666,162.824 309.499,157.157 309,151.5C 307.737,144.626 304.237,139.293 298.5,135.5C 298.5,134.5 298.5,133.5 298.5,132.5 Z"/></g>
<g><path style="opacity:1" fill="#050911" d="M 64.5,152.5 C 71.8333,155.5 79.1667,158.5 86.5,161.5C 86.7778,163.346 86.1112,164.68 84.5,165.5C 81.8333,164.167 79.1667,162.833 76.5,161.5C 75.5853,162.328 74.9186,163.328 74.5,164.5C 77.2911,166.735 80.2911,168.735 83.5,170.5C 83.0814,171.672 82.4147,172.672 81.5,173.5C 74.1512,170.162 67.1512,166.328 60.5,162C 60.6135,160.72 61.2801,159.887 62.5,159.5C 65.1667,160.833 67.8333,162.167 70.5,163.5C 71.4147,162.672 72.0814,161.672 72.5,160.5C 70.2063,158.347 67.5396,156.68 64.5,155.5C 63.4376,154.575 63.4376,153.575 64.5,152.5 Z"/></g>
<g><path style="opacity:1" fill="#040810" d="M 438.5,158.5 C 441.911,161.321 443.744,164.988 444,169.5C 436.974,173.275 429.807,176.442 422.5,179C 421.269,177.817 421.269,176.651 422.5,175.5C 428.652,172.923 434.652,170.09 440.5,167C 439.845,165.513 438.845,164.347 437.5,163.5C 432.396,166.386 427.062,168.719 421.5,170.5C 418.661,169.838 417.161,168.172 417,165.5C 417.414,165.043 417.914,164.709 418.5,164.5C 419.548,165.383 420.715,166.05 422,166.5C 427.733,164.102 433.233,161.435 438.5,158.5 Z"/></g>
<g><path style="opacity:1" fill="#04080f" d="M 52.5,182.5 C 58.9792,183.268 65.3126,184.768 71.5,187C 74.8346,189.679 75.3346,192.845 73,196.5C 65.8712,197.684 59.0378,196.517 52.5,193C 49.8805,189.502 49.8805,186.002 52.5,182.5 Z"/></g>
<g><path style="opacity:1" fill="#e6f6f3" d="M 53.5,186.5 C 60.0481,187.127 66.0481,189.127 71.5,192.5C 71.1131,193.72 70.2798,194.387 69,194.5C 64.1434,193.077 59.31,191.577 54.5,190C 53.6634,188.989 53.33,187.822 53.5,186.5 Z"/></g>
<g><path style="opacity:1" fill="#050910" d="M 444.5,189.5 C 451.665,188.497 454.498,191.497 453,198.5C 448.781,200.909 444.281,202.743 439.5,204C 431.512,206.341 428.345,203.508 430,195.5C 434.686,192.964 439.519,190.964 444.5,189.5 Z"/></g>
<g><path style="opacity:1" fill="#e6f6f3" d="M 444.5,193.5 C 446.199,193.34 447.866,193.506 449.5,194C 450.833,195 450.833,196 449.5,197C 443.918,198.697 438.251,199.864 432.5,200.5C 432.281,199.325 432.614,198.325 433.5,197.5C 437.276,196.133 440.943,194.8 444.5,193.5 Z"/></g>
<g><path style="opacity:1" fill="#070b14" d="M 43.5,211.5 C 51.8211,212.631 60.1544,213.631 68.5,214.5C 68.5,215.833 68.5,217.167 68.5,218.5C 48.8782,215.158 48.5448,216.491 67.5,222.5C 67.5,223.833 67.5,225.167 67.5,226.5C 59.0919,226.074 50.7586,225.074 42.5,223.5C 42.5,222.5 42.5,221.5 42.5,220.5C 57.0618,222.709 57.7285,221.376 44.5,216.5C 43.5481,214.955 43.2148,213.288 43.5,211.5 Z"/></g>
<g><path style="opacity:1" fill="#04070e" d="M 453.5,218.5 C 455.167,218.5 456.833,218.5 458.5,218.5C 459.051,221.807 459.384,225.14 459.5,228.5C 458.5,228.5 457.5,228.5 456.5,228.5C 456.739,226.533 456.406,224.699 455.5,223C 448.861,223.741 442.194,224.575 435.5,225.5C 434.571,224.311 434.238,222.978 434.5,221.5C 441.08,221.224 447.413,220.224 453.5,218.5 Z"/></g>
<g><path style="opacity:1" fill="#030810" d="M 40.5,242.5 C 41.8333,242.5 43.1667,242.5 44.5,242.5C 44.5,244.5 44.5,246.5 44.5,248.5C 51.5,248.5 58.5,248.5 65.5,248.5C 65.5,249.833 65.5,251.167 65.5,252.5C 57.1667,252.5 48.8333,252.5 40.5,252.5C 40.5,249.167 40.5,245.833 40.5,242.5 Z"/></g>
<g><path style="opacity:1" fill="#010204" d="M 460.5,247.5 C 460.5,248.5 460.5,249.5 460.5,250.5C 455.821,250.334 451.155,250.501 446.5,251C 448.154,251.608 449.821,252.108 451.5,252.5C 454.37,253.634 457.37,254.3 460.5,254.5C 460.5,256.167 460.5,257.833 460.5,259.5C 452.5,259.5 444.5,259.5 436.5,259.5C 436.5,258.5 436.5,257.5 436.5,256.5C 441.844,256.666 447.177,256.499 452.5,256C 451.255,255.209 449.922,254.709 448.5,254.5C 444.89,253.376 441.224,252.376 437.5,251.5C 436.571,250.311 436.238,248.978 436.5,247.5C 444.5,247.5 452.5,247.5 460.5,247.5 Z"/></g>
<g><path style="opacity:1" fill="#114379" d="M 460.5,247.5 C 461.434,248.568 461.768,249.901 461.5,251.5C 457.958,251.187 454.625,251.521 451.5,252.5C 449.821,252.108 448.154,251.608 446.5,251C 451.155,250.501 455.821,250.334 460.5,250.5C 460.5,249.5 460.5,248.5 460.5,247.5 Z"/></g>
<g><path style="opacity:1" fill="#11457d" d="M 448.5,254.5 C 449.922,254.709 451.255,255.209 452.5,256C 447.177,256.499 441.844,256.666 436.5,256.5C 436.5,257.5 436.5,258.5 436.5,259.5C 435.566,258.432 435.232,257.099 435.5,255.5C 440.032,255.818 444.366,255.485 448.5,254.5 Z"/></g>
<g><path style="opacity:1" fill="#070b13" d="M 63.5,268.5 C 64.5,268.5 65.5,268.5 66.5,268.5C 66.9422,272.154 67.2756,275.821 67.5,279.5C 59.1495,280.005 50.8162,280.672 42.5,281.5C 42.5,278.167 42.5,274.833 42.5,271.5C 43.5,271.5 44.5,271.5 45.5,271.5C 45.5,273.5 45.5,275.5 45.5,277.5C 47.8333,277.5 50.1667,277.5 52.5,277.5C 52.5,275.5 52.5,273.5 52.5,271.5C 53.8333,271.5 55.1667,271.5 56.5,271.5C 56.2148,273.288 56.5481,274.955 57.5,276.5C 59.4086,275.652 61.4086,275.318 63.5,275.5C 63.5,273.167 63.5,270.833 63.5,268.5 Z"/></g>
<g><path style="opacity:1" fill="#04070e" d="M 444.5,277.5 C 449.193,277.54 453.859,277.873 458.5,278.5C 458.5,279.833 458.5,281.167 458.5,282.5C 455.303,282.027 452.137,281.361 449,280.5C 446.5,281.333 446,282.833 447.5,285C 450.827,285.61 454.161,286.11 457.5,286.5C 457.5,287.5 457.5,288.5 457.5,289.5C 449.442,288.935 441.442,287.935 433.5,286.5C 433.238,285.022 433.571,283.689 434.5,282.5C 437.084,283.393 439.751,283.726 442.5,283.5C 442.604,281.297 443.27,279.297 444.5,277.5 Z"/></g>
<g><path style="opacity:1" fill="#040810" d="M 54.5,297.5 C 56.5273,297.338 58.5273,297.505 60.5,298C 61.9557,299.745 63.289,301.578 64.5,303.5C 66.8333,302.833 69.1667,302.167 71.5,301.5C 73.1112,302.32 73.7778,303.654 73.5,305.5C 65.6468,306.713 57.9801,308.713 50.5,311.5C 46.7682,305.094 48.1015,300.427 54.5,297.5 Z"/></g>
<g><path style="opacity:1" fill="#1b6cc3" d="M 54.5,301.5 C 56.1667,301.5 57.8333,301.5 59.5,301.5C 59.67,302.822 59.3366,303.989 58.5,305C 56.1873,305.662 53.854,306.162 51.5,306.5C 51.31,304.041 52.31,302.374 54.5,301.5 Z"/></g>
<g><path style="opacity:1" fill="#04070f" d="M 428.5,302.5 C 435.944,304.425 443.277,306.759 450.5,309.5C 450.833,310.167 451.167,310.833 451.5,311.5C 450.622,314.13 449.955,316.797 449.5,319.5C 447.897,319.688 446.563,319.188 445.5,318C 446.669,315.993 447.335,313.827 447.5,311.5C 445.139,311.326 442.806,310.993 440.5,310.5C 440.833,313.5 439.5,314.833 436.5,314.5C 436.833,312.5 437.167,310.5 437.5,308.5C 435.801,308.38 434.135,308.046 432.5,307.5C 430.233,308.362 429.233,310.029 429.5,312.5C 428.022,312.762 426.689,312.429 425.5,311.5C 426.705,308.55 427.705,305.55 428.5,302.5 Z"/></g>
<g><path style="opacity:1" fill="#101010" d="M 148.5,328.5 C 148.666,323.156 148.499,317.823 148,312.5C 147.209,313.745 146.709,315.078 146.5,316.5C 145.188,320.416 144.188,324.416 143.5,328.5C 142.167,328.5 140.833,328.5 139.5,328.5C 139.5,320.833 139.5,313.167 139.5,305.5C 140.5,305.5 141.5,305.5 142.5,305.5C 142.334,309.514 142.501,313.514 143,317.5C 143.791,316.255 144.291,314.922 144.5,313.5C 144.851,310.762 145.518,308.096 146.5,305.5C 148.045,304.548 149.712,304.215 151.5,304.5C 151.5,312.5 151.5,320.5 151.5,328.5C 150.5,328.5 149.5,328.5 148.5,328.5 Z"/></g>
<g><path style="opacity:1" fill="#939393" d="M 139.5,305.5 C 140.568,304.566 141.901,304.232 143.5,304.5C 143.19,307.713 143.523,310.713 144.5,313.5C 144.291,314.922 143.791,316.255 143,317.5C 142.501,313.514 142.334,309.514 142.5,305.5C 141.5,305.5 140.5,305.5 139.5,305.5 Z"/></g>
<g><path style="opacity:1" fill="#101010" d="M 165.5,316.5 C 165.238,317.978 165.571,319.311 166.5,320.5C 167.452,318.955 167.785,317.288 167.5,315.5C 167.508,312.455 167.841,309.455 168.5,306.5C 170.042,305.699 171.708,305.366 173.5,305.5C 173.5,313.167 173.5,320.833 173.5,328.5C 172.5,328.5 171.5,328.5 170.5,328.5C 170.488,309.896 169.821,309.896 168.5,328.5C 167.167,328.5 165.833,328.5 164.5,328.5C 164.425,325.794 164.092,323.127 163.5,320.5C 163.313,318.436 162.813,316.436 162,314.5C 161.501,319.155 161.334,323.821 161.5,328.5C 160.5,328.5 159.5,328.5 158.5,328.5C 158.5,320.5 158.5,312.5 158.5,304.5C 160.467,304.261 162.301,304.594 164,305.5C 164.548,309.17 165.048,312.837 165.5,316.5 Z"/></g>
<g><path style="opacity:1" fill="#5c5c5c" d="M 173.5,328.5 C 173.5,320.833 173.5,313.167 173.5,305.5C 171.708,305.366 170.042,305.699 168.5,306.5C 169.918,304.692 171.918,304.025 174.5,304.5C 174.826,312.684 174.492,320.684 173.5,328.5 Z"/></g>
<g><path style="opacity:1" fill="#5d5d5d" d="M 199.5,305.5 C 197.167,305.5 194.833,305.5 192.5,305.5C 192.5,313.167 192.5,320.833 192.5,328.5C 191.508,320.684 191.174,312.684 191.5,304.5C 194.385,304.194 197.052,304.527 199.5,305.5 Z"/></g>
<g><path style="opacity:1" fill="#050505" d="M 199.5,305.5 C 200.458,305.953 201.292,306.619 202,307.5C 202.667,310.833 202.667,314.167 202,317.5C 200.211,319.229 198.044,319.896 195.5,319.5C 195.5,322.5 195.5,325.5 195.5,328.5C 194.5,328.5 193.5,328.5 192.5,328.5C 192.5,320.833 192.5,313.167 192.5,305.5C 194.833,305.5 197.167,305.5 199.5,305.5 Z"/></g>
<g><path style="opacity:1" fill="#101010" d="M 226.5,316.5 C 226.238,317.978 226.571,319.311 227.5,320.5C 228.452,318.955 228.785,317.288 228.5,315.5C 228.508,312.455 228.841,309.455 229.5,306.5C 231.042,305.699 232.708,305.366 234.5,305.5C 234.5,313.167 234.5,320.833 234.5,328.5C 233.5,328.5 232.5,328.5 231.5,328.5C 231.488,309.896 230.821,309.896 229.5,328.5C 228.167,328.5 226.833,328.5 225.5,328.5C 225.425,325.794 225.092,323.127 224.5,320.5C 224.313,318.436 223.813,316.436 223,314.5C 222.501,319.155 222.334,323.821 222.5,328.5C 221.5,328.5 220.5,328.5 219.5,328.5C 219.5,320.5 219.5,312.5 219.5,304.5C 221.467,304.261 223.301,304.594 225,305.5C 225.548,309.17 226.048,312.837 226.5,316.5 Z"/></g>
<g><path style="opacity:1" fill="#5c5c5c" d="M 234.5,328.5 C 234.5,320.833 234.5,313.167 234.5,305.5C 232.708,305.366 231.042,305.699 229.5,306.5C 230.918,304.692 232.918,304.025 235.5,304.5C 235.826,312.684 235.492,320.684 234.5,328.5 Z"/></g>
<g><path style="opacity:1" fill="#909090" d="M 260.5,305.5 C 258.167,305.5 255.833,305.5 253.5,305.5C 253.5,313.167 253.5,320.833 253.5,328.5C 252.508,320.684 252.174,312.684 252.5,304.5C 255.385,304.194 258.052,304.527 260.5,305.5 Z"/></g>
<g><path style="opacity:1" fill="#0e0e0e" d="M 260.5,305.5 C 264.254,306.828 265.421,309.494 264,313.5C 262,314.833 262,316.167 264,317.5C 266.165,326.503 262.665,330.169 253.5,328.5C 253.5,320.833 253.5,313.167 253.5,305.5C 255.833,305.5 258.167,305.5 260.5,305.5 Z"/></g>
<g><path style="opacity:1" fill="#121212" d="M 273.5,304.5 C 276.272,304.22 278.772,304.887 281,306.5C 281.667,313.167 281.667,319.833 281,326.5C 277.381,329.343 274.048,329.01 271,325.5C 270.333,319.5 270.333,313.5 271,307.5C 272.045,306.627 272.878,305.627 273.5,304.5 Z"/></g>
<g><path style="opacity:1" fill="#090909" d="M 302.5,328.5 C 301.5,328.5 300.5,328.5 299.5,328.5C 299.5,321.833 299.5,315.167 299.5,308.5C 297.833,308.5 296.167,308.5 294.5,308.5C 294.666,314.509 294.499,320.509 294,326.5C 292.211,328.229 290.044,328.896 287.5,328.5C 287.5,327.167 287.5,325.833 287.5,324.5C 288.5,324.5 289.5,324.5 290.5,324.5C 291.49,318.355 291.823,312.022 291.5,305.5C 295.167,305.5 298.833,305.5 302.5,305.5C 302.5,313.167 302.5,320.833 302.5,328.5 Z"/></g>
<g><path style="opacity:1" fill="#909090" d="M 302.5,328.5 C 302.5,320.833 302.5,313.167 302.5,305.5C 298.833,305.5 295.167,305.5 291.5,305.5C 291.823,312.022 291.49,318.355 290.5,324.5C 290.5,317.833 290.5,311.167 290.5,304.5C 294.833,304.5 299.167,304.5 303.5,304.5C 303.826,312.684 303.492,320.684 302.5,328.5 Z"/></g>
<g><path style="opacity:1" fill="#5a5a5a" d="M 313.5,305.5 C 312.5,305.5 311.5,305.5 310.5,305.5C 310.5,313.167 310.5,320.833 310.5,328.5C 309.508,320.684 309.174,312.684 309.5,304.5C 311.099,304.232 312.432,304.566 313.5,305.5 Z"/></g>
<g><path style="opacity:1" fill="#0a0a0a" d="M 313.5,305.5 C 313.5,308.167 313.5,310.833 313.5,313.5C 315.827,313.247 317.827,313.914 319.5,315.5C 323.323,324.935 320.323,329.268 310.5,328.5C 310.5,320.833 310.5,313.167 310.5,305.5C 311.5,305.5 312.5,305.5 313.5,305.5 Z"/></g>
<g><path style="opacity:1" fill="#141414" d="M 333.5,304.5 C 337.245,305.265 340.745,306.598 344,308.5C 344.667,312.833 344.667,317.167 344,321.5C 342.491,323.919 340.325,324.919 337.5,324.5C 337.5,325.833 337.5,327.167 337.5,328.5C 336.167,328.5 334.833,328.5 333.5,328.5C 333.5,327.167 333.5,325.833 333.5,324.5C 327.459,324.293 325.125,321.126 326.5,315C 326.667,312.833 326.833,310.667 327,308.5C 329.425,307.357 331.592,306.024 333.5,304.5 Z"/></g>
<g><path style="opacity:1" fill="#191919" d="M 353.5,304.5 C 355.5,304.5 357.5,304.5 359.5,304.5C 360.717,312.47 361.717,320.47 362.5,328.5C 361.167,328.5 359.833,328.5 358.5,328.5C 358.5,327.167 358.5,325.833 358.5,324.5C 356.833,324.5 355.167,324.5 353.5,324.5C 353.5,325.833 353.5,327.167 353.5,328.5C 352.5,328.5 351.5,328.5 350.5,328.5C 350.979,320.436 351.979,312.436 353.5,304.5 Z"/></g>
<g><path style="opacity:1" fill="#e5e5e5" d="M 195.5,308.5 C 198.488,308.155 199.821,309.488 199.5,312.5C 199.821,315.512 198.488,316.845 195.5,316.5C 195.5,313.833 195.5,311.167 195.5,308.5 Z"/></g>
<g><path style="opacity:1" fill="#e8e8e8" d="M 256.5,308.5 C 257.833,308.5 259.167,308.5 260.5,308.5C 261.401,312.241 260.068,314.241 256.5,314.5C 256.5,312.5 256.5,310.5 256.5,308.5 Z"/></g>
<g><path style="opacity:1" fill="#f1f1f1" d="M 274.5,308.5 C 275.833,308.5 277.167,308.5 278.5,308.5C 278.666,313.844 278.499,319.177 278,324.5C 277,325.833 276,325.833 275,324.5C 274.501,319.177 274.334,313.844 274.5,308.5 Z"/></g>
<g><path style="opacity:1" fill="#e2e2e2" d="M 330.5,309.5 C 331.5,309.5 332.5,309.5 333.5,309.5C 333.5,313.167 333.5,316.833 333.5,320.5C 332.167,320.5 330.833,320.5 329.5,320.5C 329.244,316.731 329.577,313.064 330.5,309.5 Z"/></g>
<g><path style="opacity:1" fill="#f2f2f2" d="M 337.5,309.5 C 338.5,309.5 339.5,309.5 340.5,309.5C 340.665,313.182 340.499,316.848 340,320.5C 339.586,320.957 339.086,321.291 338.5,321.5C 337.509,317.555 337.176,313.555 337.5,309.5 Z"/></g>
<g><path style="opacity:1" fill="#838383" d="M 148.5,328.5 C 147.833,324.5 147.167,320.5 146.5,316.5C 146.709,315.078 147.209,313.745 148,312.5C 148.499,317.823 148.666,323.156 148.5,328.5 Z"/></g>
<g><path style="opacity:1" fill="#d1d1d1" d="M 355.5,310.5 C 356.222,310.918 356.722,311.584 357,312.5C 357.497,315.146 357.664,317.813 357.5,320.5C 356.5,320.5 355.5,320.5 354.5,320.5C 354.616,317.14 354.949,313.807 355.5,310.5 Z"/></g>
<g><path style="opacity:1" fill="#a3a3a3" d="M 163.5,320.5 C 162.833,323.167 162.167,325.833 161.5,328.5C 161.334,323.821 161.501,319.155 162,314.5C 162.813,316.436 163.313,318.436 163.5,320.5 Z"/></g>
<g><path style="opacity:1" fill="#a3a3a3" d="M 224.5,320.5 C 223.833,323.167 223.167,325.833 222.5,328.5C 222.334,323.821 222.501,319.155 223,314.5C 223.813,316.436 224.313,318.436 224.5,320.5 Z"/></g>
<g><path style="opacity:1" fill="#e1e1e1" d="M 313.5,317.5 C 314.833,317.5 316.167,317.5 317.5,317.5C 317.663,319.857 317.497,322.19 317,324.5C 315.989,325.337 314.822,325.67 313.5,325.5C 313.5,322.833 313.5,320.167 313.5,317.5 Z"/></g>
<g><path style="opacity:1" fill="#e1e1e1" d="M 256.5,317.5 C 257.822,317.33 258.989,317.663 260,318.5C 260.497,320.81 260.663,323.143 260.5,325.5C 259.167,325.5 257.833,325.5 256.5,325.5C 256.5,322.833 256.5,320.167 256.5,317.5 Z"/></g>
<g><path style="opacity:1" fill="#686868" d="M 167.5,315.5 C 167.785,317.288 167.452,318.955 166.5,320.5C 165.571,319.311 165.238,317.978 165.5,316.5C 166.167,316.167 166.833,315.833 167.5,315.5 Z"/></g>
<g><path style="opacity:1" fill="#686868" d="M 228.5,315.5 C 228.785,317.288 228.452,318.955 227.5,320.5C 226.571,319.311 226.238,317.978 226.5,316.5C 227.167,316.167 227.833,315.833 228.5,315.5 Z"/></g>
<g><path style="opacity:1" fill="#000000" d="M 181.5,325.5 C 182.5,325.5 183.5,325.5 184.5,325.5C 184.5,326.5 184.5,327.5 184.5,328.5C 183.5,328.5 182.5,328.5 181.5,328.5C 181.5,327.5 181.5,326.5 181.5,325.5 Z"/></g>
<g><path style="opacity:1" fill="#252525" d="M 208.5,324.5 C 209.833,324.5 211.167,324.5 212.5,324.5C 212.5,325.833 212.5,327.167 212.5,328.5C 211.167,328.5 209.833,328.5 208.5,328.5C 208.5,327.167 208.5,325.833 208.5,324.5 Z"/></g>
<g><path style="opacity:1" fill="#000000" d="M 242.5,325.5 C 243.5,325.5 244.5,325.5 245.5,325.5C 245.5,326.5 245.5,327.5 245.5,328.5C 244.5,328.5 243.5,328.5 242.5,328.5C 242.5,327.5 242.5,326.5 242.5,325.5 Z"/></g>
<g><path style="opacity:1" fill="#04070f" d="M 419.5,328.5 C 426.957,329.976 433.791,332.976 440,337.5C 440.621,343.878 437.788,346.378 431.5,345C 430.044,344.577 429.544,343.744 430,342.5C 431.787,341.657 433.62,341.49 435.5,342C 436.731,340.817 436.731,339.651 435.5,338.5C 430.79,335.641 425.79,333.641 420.5,332.5C 420.452,335.292 421.785,337.125 424.5,338C 421.833,340.668 419.333,340.168 417,336.5C 416.018,333.225 416.851,330.559 419.5,328.5 Z"/></g>
<g><path style="opacity:1" fill="#050911" d="M 85.5,336.5 C 87.4759,337.427 87.8092,338.76 86.5,340.5C 81.6587,343.421 76.6587,346.088 71.5,348.5C 70.7579,350.108 70.5913,351.775 71,353.5C 70.2825,354.451 69.4491,354.617 68.5,354C 67.1258,351.417 65.6258,348.917 64,346.5C 63.4487,344.647 64.1153,343.313 66,342.5C 66.3468,344.18 67.3468,345.18 69,345.5C 74.6261,342.606 80.1261,339.606 85.5,336.5 Z"/></g>
<g><path style="opacity:1" fill="#050911" d="M 406.5,350.5 C 412.978,354.576 419.311,358.91 425.5,363.5C 426.471,364.962 426.138,366.295 424.5,367.5C 422.135,365.158 419.469,363.658 416.5,363C 418.041,365.916 419.707,368.749 421.5,371.5C 421,372.5 420.5,373.5 420,374.5C 417.665,371.834 415.831,368.834 414.5,365.5C 410.014,363.545 405.347,362.212 400.5,361.5C 400.222,359.654 400.889,358.32 402.5,357.5C 405.344,359.103 408.344,359.603 411.5,359C 409.957,357.122 408.124,355.622 406,354.5C 405.421,353.072 405.588,351.738 406.5,350.5 Z"/></g>
<g><path style="opacity:1" fill="#040810" d="M 96.5,356.5 C 97.552,356.351 98.552,356.517 99.5,357C 101.167,359.333 102.833,361.667 104.5,364C 98.0892,368.955 91.5892,373.789 85,378.5C 82.3088,375.873 80.6422,372.873 80,369.5C 80.3333,369.167 80.6667,368.833 81,368.5C 82.6851,370.017 84.1851,371.684 85.5,373.5C 87.1667,372.167 88.8333,370.833 90.5,369.5C 88.1129,362.776 89.2796,362.11 94,367.5C 95.5578,365.641 97.3911,364.141 99.5,363C 98.5467,361.045 97.2134,359.378 95.5,358C 96.056,357.617 96.3893,357.117 96.5,356.5 Z"/></g>
<g><path style="opacity:1" fill="#050912" d="M 388.5,373.5 C 389.552,373.351 390.552,373.517 391.5,374C 396.681,379.348 402.015,384.515 407.5,389.5C 407.167,390.5 406.5,391.167 405.5,391.5C 401.88,389.547 398.88,386.881 396.5,383.5C 396.167,383.667 395.833,383.833 395.5,384C 397.833,387.667 400.167,391.333 402.5,395C 401.333,396.167 400.167,397.333 399,398.5C 393.292,392.624 387.459,386.958 381.5,381.5C 382.035,379.899 383.035,379.399 384.5,380C 397.281,393.196 398.448,392.363 388,377.5C 387.421,376.072 387.588,374.738 388.5,373.5 Z"/></g>
<g><path style="opacity:1" fill="#090e18" d="M 115.5,379.5 C 117.346,379.222 118.68,379.889 119.5,381.5C 115.182,386.319 110.682,390.985 106,395.5C 105.493,396.996 105.993,398.163 107.5,399C 106.667,399.833 105.833,400.667 105,401.5C 102.667,399.167 100.333,396.833 98,394.5C 97.8852,389.645 99.2185,389.312 102,393.5C 106.703,388.965 111.203,384.298 115.5,379.5 Z"/></g>
<g><path style="opacity:1" fill="#04080f" d="M 367.5,393.5 C 368.822,393.33 369.989,393.663 371,394.5C 375.5,400.333 380,406.167 384.5,412C 383.289,413.578 381.955,413.745 380.5,412.5C 378.144,409.978 375.977,407.312 374,404.5C 375.152,408.5 376.652,412.5 378.5,416.5C 377.24,417.382 376.074,418.382 375,419.5C 369.975,413.309 365.142,406.976 360.5,400.5C 360.833,399.5 361.5,398.833 362.5,398.5C 374.126,414.948 375.459,413.948 366.5,395.5C 366.863,394.817 367.196,394.15 367.5,393.5 Z"/></g>
<g><path style="opacity:1" fill="#060a13" d="M 133.5,394.5 C 134.995,394.415 135.995,395.081 136.5,396.5C 134.243,400.012 131.743,403.346 129,406.5C 128.333,407.167 128.333,407.833 129,408.5C 132.821,405.257 136.821,402.257 141,399.5C 142.158,399.998 142.991,400.831 143.5,402C 139.066,408.771 134.233,415.271 129,421.5C 128.167,420.667 127.333,419.833 126.5,419C 136.241,407.331 135.241,406.497 123.5,416.5C 121.998,415.917 120.665,415.084 119.5,414C 124.308,407.53 128.975,401.03 133.5,394.5 Z"/></g>
<g><path style="opacity:1" fill="#050912" d="M 156.5,412.5 C 163.35,411.297 166.183,413.963 165,420.5C 162.293,425.416 159.459,430.249 156.5,435C 147.743,435.577 145.577,432.077 150,424.5C 150.925,425.047 151.758,425.713 152.5,426.5C 151.691,428.071 151.357,429.738 151.5,431.5C 153.39,431.703 154.89,431.037 156,429.5C 158.694,425.121 160.527,420.454 161.5,415.5C 158.883,416.43 156.55,417.597 154.5,419C 154.043,418.586 153.709,418.086 153.5,417.5C 154.26,415.64 155.26,413.973 156.5,412.5 Z"/></g>
<g><path style="opacity:1" fill="#090f19" d="M 382.5,414.5 C 383.995,414.415 384.995,415.081 385.5,416.5C 377.166,423.158 376.166,422.491 382.5,414.5 Z"/></g>
<g><path style="opacity:1" fill="#050a12" d="M 326.5,418.5 C 329.087,419.307 329.587,420.641 328,422.5C 327.333,423.833 327.333,425.167 328,426.5C 331.833,431 335.667,435.5 339.5,440C 338.241,440.982 336.908,441.315 335.5,441C 332.667,437.5 329.833,434 327,430.5C 327.224,434.306 327.724,438.139 328.5,442C 328.359,443.955 327.526,445.455 326,446.5C 324.583,438.167 323.583,429.834 323,421.5C 324.145,420.364 325.312,419.364 326.5,418.5 Z"/></g>
<g><path style="opacity:1" fill="#03060d" d="M 188.5,424.5 C 189.643,424.908 190.643,425.575 191.5,426.5C 189.432,432.538 187.265,438.538 185,444.5C 184.477,446.223 183.477,447.556 182,448.5C 173.309,445.219 172.142,440.052 178.5,433C 180.9,432.814 183.234,432.314 185.5,431.5C 186.312,429.055 187.312,426.722 188.5,424.5 Z"/></g>
<g><path style="opacity:1" fill="#060a12" d="M 298.5,428.5 C 299.5,428.5 300.5,428.5 301.5,428.5C 303.029,436.282 305.029,443.949 307.5,451.5C 305.994,452.747 304.494,452.747 303,451.5C 302.178,448.883 301.678,446.216 301.5,443.5C 300.167,443.5 298.833,443.5 297.5,443.5C 297.531,446.959 298.198,450.292 299.5,453.5C 298.167,454.833 296.833,454.833 295.5,453.5C 293.573,446.289 291.573,439.122 289.5,432C 290.877,430.759 292.21,430.592 293.5,431.5C 294.642,434.399 295.308,437.399 295.5,440.5C 296.822,440.67 297.989,440.337 299,439.5C 299.279,435.83 299.112,432.163 298.5,428.5 Z"/></g>
<g><path style="opacity:1" fill="#04070e" d="M 206.5,430.5 C 210.423,430.76 214.09,431.76 217.5,433.5C 215.195,441.027 213.528,448.693 212.5,456.5C 209.123,456.041 205.789,455.374 202.5,454.5C 202.5,453.5 202.5,452.5 202.5,451.5C 204.861,451.674 207.194,452.007 209.5,452.5C 209.62,450.801 209.954,449.135 210.5,447.5C 209.638,445.233 207.971,444.233 205.5,444.5C 205.5,443.5 205.5,442.5 205.5,441.5C 207.262,441.357 208.929,441.691 210.5,442.5C 212.054,440.067 212.72,437.4 212.5,434.5C 209.031,435.113 207.031,433.779 206.5,430.5 Z"/></g>
<g><path style="opacity:1" fill="#04070e" d="M 269.5,434.5 C 270.833,434.5 272.167,434.5 273.5,434.5C 274.467,442.469 275.134,450.469 275.5,458.5C 274.5,458.5 273.5,458.5 272.5,458.5C 271.529,441.588 270.196,441.921 268.5,459.5C 266.833,459.5 265.167,459.5 263.5,459.5C 262.965,451.479 262.299,443.479 261.5,435.5C 262.833,435.5 264.167,435.5 265.5,435.5C 265.791,454.996 267.124,454.662 269.5,434.5 Z"/></g>
<g><path style="opacity:1" fill="#04070e" d="M 234.5,435.5 C 237.833,435.5 241.167,435.5 244.5,435.5C 244.432,443.514 244.099,451.514 243.5,459.5C 233.011,461.195 230.011,457.362 234.5,448C 231.88,443.835 231.88,439.668 234.5,435.5 Z"/></g>
<g><path style="opacity:1" fill="#1b6ac1" d="M 180.5,435.5 C 181.5,435.5 182.5,435.5 183.5,435.5C 183.101,438.696 182.101,441.696 180.5,444.5C 179.054,443.829 178.388,442.662 178.5,441C 178.758,438.991 179.425,437.157 180.5,435.5 Z"/></g>
<g><path style="opacity:1" fill="#1c70ca" d="M 237.5,438.5 C 238.5,438.5 239.5,438.5 240.5,438.5C 240.5,441.167 240.5,443.833 240.5,446.5C 239.178,446.67 238.011,446.337 237,445.5C 236.297,443.071 236.463,440.738 237.5,438.5 Z"/></g>
<g><path style="opacity:1" fill="#1758a0" d="M 237.5,449.5 C 238.5,449.5 239.5,449.5 240.5,449.5C 240.5,451.833 240.5,454.167 240.5,456.5C 236.452,455.738 235.452,453.404 237.5,449.5 Z"/></g>
</svg>
